<svg xmlns="http://www.w3.org/2000/svg" viewBox="0 0 180 180" width="180" height="180" role="img" aria-label="Botella de vino">
  <rect width="180" height="180" rx="40" fill="#F4D9BA"/>
  <!-- relleno acuarela del cuerpo, desplazado -->
  <path d="M72 148 L72 96 C72 82 84 86 84 66 L84 50 L98 50 L98 66 C98 86 110 82 110 96 L110 148 Z"
        fill="#B15D5A" opacity="0.9" transform="translate(3,2)"/>
  <g fill="none" stroke="#7A1E20" stroke-width="3" stroke-linecap="round" stroke-linejoin="round">
    <path d="M22 150 Q90 146 158 150"/>
    <!-- botella: linea fluida cuello-hombros-cuerpo -->
    <path d="M68 150 L68 92 C68 74 82 80 82 58 L82 34
             Q82 29 87 29 L93 29 Q98 29 98 34 L98 58
             C98 80 112 74 112 92 L112 150"/>
    <path d="M82 45 L98 45" stroke-width="2.5"/>
    <rect x="74" y="104" width="32" height="32" rx="4" fill="#F4D9BA" stroke-width="2.5"/>
  </g>
</svg>
